<?xml version="1.0" encoding="UTF-8"?> <!-- Creator: CorelDRAW 2017 --> <svg xmlns="http://www.w3.org/2000/svg" xmlns:xlink="http://www.w3.org/1999/xlink" xml:space="preserve" width="210mm" height="210mm" style="shape-rendering:geometricPrecision; text-rendering:geometricPrecision; image-rendering:optimizeQuality; fill-rule:evenodd; clip-rule:evenodd " viewBox="0 0 21000 21000"> <defs> <style type="text/css"> path{fill:#ffff} </style> </defs> <g id="Слой_x0020_1"> <metadata id="CorelCorpID_0Corel-Layer"></metadata> <g id="_2885836931072"> <path class="fil0" d="M15147.65 6299.19l123.8 -104.42 10.39 12.29 10.63 12.61 10.49 12.62 10.41 12.55 10.32 12.57 10.22 12.5 10.14 12.52 10.01 12.47 9.91 12.42 9.84 12.44 9.71 12.35 9.61 12.33 9.58 12.37 9.42 12.29 9.31 12.26 9.23 12.23 9.12 12.16 9.04 12.16 8.94 12.15 8.83 12.1 8.72 12.05 -131.37 94.71 -8.34 -11.54 -8.44 -11.54 -8.55 -11.6 -8.65 -11.64 -8.76 -11.71 -8.84 -11.74 -8.96 -11.74 -9.03 -11.81 -9.12 -11.79 -9.26 -11.87 -9.38 -11.94 -9.43 -11.92 -9.55 -11.96 -9.65 -12.02 -9.72 -12 -9.86 -12.08 -9.93 -12.08 -10.06 -12.13 -10.14 -12.17 -10.23 -12.16 -10.4 -12.29zm-10519.52 1926.09l-154.37 -48.94 6.21 -19.43 6.28 -19.45 6.36 -19.39 6.42 -19.32 6.49 -19.32 6.56 -19.25 6.64 -19.26 6.71 -19.21 6.76 -19.14 6.86 -19.14 6.91 -19.06 6.98 -19.05 7.06 -19.03 2.28 -6.07 151.52 57.2 -2.08 5.52 -6.84 18.38 -6.75 18.5 -6.72 18.51 -6.63 18.53 -6.57 18.59 -6.51 18.59 -6.42 18.61 -6.36 18.7 -6.3 18.71 -6.22 18.77 -6.17 18.77 -6.06 18.8 -6.04 18.88zm143.91 -396.33l-149.7 -61.77 4.21 -10.25 7.72 -18.63 7.79 -18.61 7.89 -18.57 7.93 -18.51 7.99 -18.48 8.08 -18.45 8.11 -18.36 8.2 -18.4 8.27 -18.32 8.33 -18.3 8.4 -18.21 8.44 -18.21 8.52 -18.15 8.58 -18.14 8.65 -18.09 7 -14.48 145.69 70.71 -6.71 13.89 -8.39 17.54 -8.32 17.59 -8.26 17.6 -8.21 17.69 -8.15 17.7 -8.06 17.72 -8.02 17.76 -7.94 17.78 -7.88 17.88 -7.83 17.87 -7.75 17.92 -7.71 17.97 -7.6 17.96 -7.56 18.02 -7.5 18.07 -4.21 10.26zm201.66 -433.53l-143.29 -75.43 9 -17.2 9.35 -17.69 9.41 -17.62 9.45 -17.54 9.53 -17.55 9.6 -17.49 9.62 -17.44 9.73 -17.43 9.75 -17.36 9.82 -17.33 9.88 -17.28 9.96 -17.28 10.02 -17.23 10.07 -17.17 10.11 -17.1 10.17 -17.08 5.28 -8.78 138.66 83.66 -4.96 8.23 -9.88 16.6 -9.84 16.65 -9.78 16.68 -9.7 16.68 -9.64 16.73 -9.59 16.79 -9.55 16.84 -9.49 16.88 -9.41 16.87 -9.36 16.96 -9.31 16.97 -9.24 17.01 -9.19 17.08 -9.12 17.07 -9.06 17.1 -9 17.2zm240.33 -413.97l-136.23 -87.55 2.35 -3.68 10.75 -16.66 10.82 -16.65 10.88 -16.62 10.94 -16.55 10.98 -16.5 11.02 -16.45 11.1 -16.44 11.17 -16.42 11.19 -16.31 11.24 -16.31 11.34 -16.28 11.37 -16.22 11.43 -16.17 11.45 -16.11 11.55 -16.13 11.59 -16.03 4.21 -5.8 130.86 95.42 -3.92 5.38 -11.27 15.61 -11.19 15.61 -11.16 15.69 -11.11 15.75 -11.05 15.74 -10.98 15.79 -10.94 15.85 -10.9 15.89 -10.82 15.9 -10.77 15.95 -10.74 16.04 -10.69 16.05 -10.6 16.06 -10.56 16.1 -10.5 16.16 -10.46 16.21 -2.35 3.68zm275.69 -391.37l-128.2 -98.95 4.08 -5.29 12.11 -15.65 12.18 -15.61 12.2 -15.51 12.26 -15.49 12.32 -15.48 12.38 -15.4 12.4 -15.37 12.47 -15.32 12.52 -15.29 12.57 -15.22 12.6 -15.19 12.66 -15.16 12.73 -15.11 12.73 -15.05 12.83 -15.02 12.87 -15.02 3.77 -4.35 122.31 106.14 -3.42 3.97 -12.49 14.52 -12.43 14.61 -12.44 14.69 -12.37 14.69 -12.31 14.74 -12.28 14.77 -12.21 14.83 -12.19 14.87 -12.12 14.9 -12.08 14.94 -12.02 14.98 -11.96 15 -11.91 15.09 -11.9 15.13 -11.82 15.13 -11.76 15.19 -4.08 5.29zm307.86 -366.89l-119.48 -109.32 5.21 -5.72 13.32 -14.51 13.37 -14.49 13.41 -14.41 13.46 -14.42 13.54 -14.38 13.55 -14.31 13.61 -14.27 13.63 -14.21 13.7 -14.18 13.75 -14.16 13.79 -14.07 13.83 -14.04 13.86 -13.99 13.93 -13.96 13.94 -13.9 13.99 -13.86 3.7 -3.64 113.39 115.63 -3.3 3.25 -13.64 13.51 -13.62 13.57 -13.54 13.57 -13.5 13.64 -13.48 13.68 -13.42 13.72 -13.36 13.73 -13.32 13.8 -13.31 13.88 -13.25 13.88 -13.19 13.93 -13.15 13.96 -13.11 14.02 -13.08 14.09 -13.02 14.11 -12.99 14.15 -5.22 5.72zm336.84 -340.95l-110.41 -118.45 5.92 -5.54 14.43 -13.41 14.43 -13.33 14.51 -13.33 14.56 -13.28 14.58 -13.21 14.64 -13.2 14.65 -13.12 14.69 -13.09 14.76 -13.03 14.8 -13.01 14.82 -12.94 14.85 -12.9 14.9 -12.85 14.93 -12.81 15 -12.76 15.01 -12.71 3.88 -3.27 104.11 124.05 -3.54 2.98 -14.65 12.39 -14.58 12.44 -14.57 12.48 -14.51 12.52 -14.5 12.59 -14.46 12.61 -14.38 12.65 -14.37 12.71 -14.33 12.76 -14.3 12.8 -14.25 12.84 -14.22 12.89 -14.17 12.93 -14.12 12.97 -14.11 13.03 -14.07 13.06 -5.93 5.54zm362.64 -313.72l-100.99 -126.58 6.25 -5 15.38 -12.24 15.39 -12.17 15.46 -12.16 15.5 -12.11 15.53 -12.05 15.55 -12 15.61 -11.98 15.65 -11.91 15.66 -11.87 15.71 -11.81 15.69 -11.75 15.79 -11.73 15.81 -11.67 15.84 -11.63 15.85 -11.57 15.92 -11.54 4.5 -3.26 94.48 131.54 -4.14 2.99 -15.5 11.23 -15.47 11.3 -15.45 11.34 -15.42 11.38 -15.36 11.44 -15.37 11.49 -15.32 11.52 -15.28 11.58 -15.25 11.61 -15.19 11.66 -15.19 11.71 -15.14 11.76 -15.11 11.79 -15.05 11.83 -15.06 11.94 -15.03 11.92 -6.25 5zm385.5 -285.51l-91.34 -133.74 6 -4.1 16.21 -11.04 16.26 -11 16.29 -10.95 16.29 -10.88 16.34 -10.87 16.39 -10.8 16.42 -10.75 16.42 -10.69 16.44 -10.64 16.5 -10.61 16.51 -10.56 16.55 -10.51 16.6 -10.46 16.6 -10.41 16.63 -10.35 16.65 -10.3 5.89 -3.63 84.64 138.08 -5.51 3.4 -16.29 10.07 -16.21 10.09 -16.21 10.16 -16.18 10.2 -16.13 10.25 -16.15 10.3 -16.08 10.35 -16.08 10.41 -16.03 10.43 -16 10.5 -15.97 10.54 -15.96 10.58 -15.93 10.65 -15.87 10.66 -15.84 10.73 -15.86 10.79 -5.99 4.1zm405.6 -256.42l-81.36 -140.02 4.71 -2.75 16.94 -9.8 16.91 -9.75 16.97 -9.71 17.04 -9.67 17.04 -9.61 17.03 -9.54 17.09 -9.5 17.1 -9.46 17.12 -9.41 17.18 -9.38 17.17 -9.28 17.18 -9.26 17.25 -9.2 17.21 -9.13 17.28 -9.1 17.32 -9.07 8.61 -4.47 74.47 143.81 -8.23 4.27 -16.86 8.81 -16.86 8.91 -16.86 8.94 -16.79 8.97 -16.79 9.04 -16.78 9.09 -16.73 9.11 -16.73 9.19 -16.71 9.23 -16.67 9.28 -16.65 9.34 -16.65 9.38 -16.55 9.41 -16.58 9.49 -16.58 9.52 -16.52 9.57 -4.72 2.75zm423.19 -226.43l-71.16 -145.47 1.77 -0.85 17.54 -8.56 17.5 -8.47 17.54 -8.43 17.61 -8.39 17.57 -8.31 17.62 -8.28 17.63 -8.22 17.64 -8.16 17.69 -8.13 17.68 -8.07 10.32 -4.7 10.35 -4.66 10.34 -4.65 10.29 -4.58 10.31 -4.6 10.35 -4.58 10.3 -4.55 10.3 -4.51 10.32 -4.51 10.35 -4.51 10.31 -4.45 6.5 -2.8 63.97 148.76 -6.33 2.74 -10.06 4.36 -10.03 4.34 -10.02 4.39 -10.07 4.43 -10.11 4.46 -10.02 4.42 -10.06 4.5 -10.12 4.52 -10.06 4.52 -10.06 4.53 -10.09 4.57 -17.26 7.87 -17.26 7.94 -17.22 7.96 -17.22 8.04 -17.19 8.08 -17.19 8.14 -17.15 8.17 -17.12 8.24 -17.15 8.27 -17.08 8.33 -1.77 0.86zm438.17 -194.96l-59.92 -150.45 6.58 -2.62 10.22 -4.07 10.25 -4.06 10.28 -4.07 10.28 -4.01 10.22 -3.99 10.26 -3.98 10.26 -3.98 10.3 -3.94 10.27 -3.94 10.27 -3.88 10.23 -3.87 10.24 -3.84 10.25 -3.86 10.27 -3.8 10.23 -3.79 10.27 -3.77 10.22 -3.75 10.2 -3.72 10.32 -3.74 10.22 -3.66 10.2 -3.66 10.27 -3.66 10.26 -3.65 10.26 -3.59 10.2 -3.56 10.23 -3.57 10.21 -3.53 10.23 -3.53 10.27 -3.51 3.89 -1.31 52.01 153.36 -3.66 1.25 -9.91 3.38 -9.94 3.44 -10.01 3.46 -9.98 3.47 -9.97 3.5 -9.96 3.5 -9.94 3.51 -9.95 3.53 -10.01 3.6 -9.99 3.59 -9.89 3.58 -10.01 3.66 -10.03 3.64 -9.94 3.68 -10.01 3.69 -9.94 3.71 -10 3.73 -10 3.77 -10.01 3.77 -9.98 3.79 -9.97 3.81 -9.98 3.84 -9.98 3.85 -10.02 3.89 -10.03 3.92 -9.99 3.92 -9.99 3.93 -10.02 3.97 -10.06 4 -6.58 2.62zm451.66 -160.44l-47.84 -154.73 3.6 -1.11 10.2 -3.15 10.17 -3.12 10.19 -3.11 10.23 -3.11 10.25 -3.08 10.19 -3.04 10.19 -3.05 10.25 -3.03 10.19 -2.98 10.18 -2.97 10.25 -2.97 10.17 -2.93 10.22 -2.93 10.22 -2.88 10.19 -2.89 10.23 -2.86 10.17 -2.84 10.27 -2.83 10.17 -2.79 10.17 -2.78 10.27 -2.77 10.17 -2.74 10.17 -2.72 10.2 -2.7 10.24 -2.69 10.23 -2.67 10.19 -2.64 10.2 -2.63 10.17 -2.61 10.19 -2.59 6.27 -1.58 39.42 157.09 -5.91 1.49 -9.93 2.52 -9.98 2.55 -9.94 2.55 -9.93 2.58 -9.91 2.57 -9.88 2.63 -9.94 2.64 -9.95 2.65 -9.97 2.68 -9.88 2.67 -9.95 2.72 -9.97 2.72 -9.88 2.74 -9.94 2.77 -9.92 2.77 -9.96 2.81 -9.92 2.82 -9.9 2.84 -9.97 2.86 -9.9 2.87 -9.96 2.91 -9.96 2.92 -9.89 2.93 -9.96 2.95 -9.96 2.98 -9.9 2.98 -9.91 3.01 -9.96 3.04 -9.98 3.06 -9.97 3.08 -3.6 1.12zm462.97 -123.36l-35.08 -158.09 7.5 -1.65 10.18 -2.27 10.27 -2.24 10.19 -2.21 10.2 -2.21 10.19 -2.17 10.2 -2.17 10.25 -2.15 10.2 -2.12 10.19 -2.11 10.22 -2.09 10.2 -2.09 10.25 -2.05 10.21 -2.03 10.22 -2.02 10.18 -1.99 10.22 -2 10.25 -1.97 10.22 -1.95 10.14 -1.91 10.28 -1.94 10.21 -1.88 10.22 -1.88 10.26 -1.86 10.22 -1.85 10.16 -1.79 10.21 -1.83 10.27 -1.8 10.22 -1.77 10.24 -1.76 10.22 -1.73 8.08 -1.38 26.65 159.75 -7.72 1.31 -9.96 1.7 -9.98 1.7 -9.96 1.73 -9.91 1.73 -9.96 1.77 -10.02 1.8 -9.96 1.78 -9.91 1.8 -9.96 1.84 -9.98 1.85 -9.9 1.85 -10 1.91 -9.96 1.87 -9.9 1.92 -9.96 1.92 -9.96 1.96 -9.96 1.96 -9.94 1.99 -9.9 2 -9.97 2.02 -9.93 2.02 -9.96 2.08 -9.94 2.05 -9.9 2.09 -9.94 2.11 -9.96 2.14 -9.95 2.13 -9.96 2.16 -9.88 2.17 -9.95 2.2 -7.5 1.65zm471.66 -85.6l-22.58 -160.37 3.92 -0.55 10.25 -1.42 10.25 -1.43 10.34 -1.41 10.18 -1.37 10.27 -1.38 10.32 -1.34 10.2 -1.33 10.27 -1.33 10.33 -1.29 10.2 -1.28 10.27 -1.28 10.35 -1.25 10.2 -1.23 10.28 -1.23 10.29 -1.18 10.28 -1.2 10.29 -1.17 10.3 -1.16 10.26 -1.14 10.3 -1.13 10.29 -1.1 10.3 -1.1 10.3 -1.06 10.25 -1.07 10.36 -1.05 10.3 -1.02 10.25 -1 10.32 -1.01 10.3 -0.98 10.33 -0.98 10.32 -0.94 3.09 -0.29 14.48 161.3 -2.83 0.26 -10.06 0.94 -10.07 0.94 -10.04 0.96 -10.06 0.97 -10.12 1 -10.04 0.99 -10.01 1.02 -10.09 1.04 -10.04 1.05 -10.04 1.07 -10.03 1.07 -10.04 1.1 -10.04 1.1 -10.04 1.13 -10.03 1.14 -10.02 1.16 -10.03 1.19 -10.02 1.19 -10.07 1.2 -9.96 1.22 -10.01 1.24 -10.07 1.25 -9.95 1.26 -10.01 1.3 -10.07 1.3 -9.96 1.31 -10.01 1.34 -10.06 1.35 -9.94 1.34 -9.99 1.39 -9.99 1.4 -3.92 0.55zm477.23 -49.38l-10.72 -161.59 9.26 -0.62 10.41 -0.68 10.32 -0.65 10.38 -0.66 10.4 -0.62 10.3 -0.61 10.38 -0.62 10.4 -0.58 10.39 -0.58 10.4 -0.55 10.4 -0.54 10.33 -0.53 10.41 -0.52 10.42 -0.49 10.35 -0.5 10.41 -0.47 10.43 -0.45 10.43 -0.46 10.43 -0.42 10.36 -0.4 10.43 -0.41 10.45 -0.39 10.38 -0.37 10.43 -0.35 10.44 -0.34 10.4 -0.34 10.45 -0.33 10.46 -0.29 10.48 -0.29 10.46 -0.26 10.41 -0.28 5.61 -0.14 3.79 161.91 -5.48 0.15 -10.28 0.24 -10.21 0.26 -10.21 0.29 -10.21 0.3 -10.18 0.32 -10.27 0.31 -10.19 0.34 -10.2 0.35 -10.25 0.38 -10.19 0.35 -10.17 0.41 -10.23 0.4 -10.17 0.42 -10.17 0.42 -10.18 0.46 -10.15 0.47 -10.22 0.47 -10.15 0.48 -10.16 0.52 -10.2 0.5 -10.14 0.54 -10.14 0.55 -10.13 0.55 -10.14 0.58 -10.12 0.58 -10.21 0.62 -10.13 0.62 -10.09 0.63 -10.19 0.65 -10.06 0.64 -9.26 0.62zm480.05 -16.5l0.13 -161.95 13.28 -0.02 28.44 0.1 28.4 0.21 28.34 0.37 28.26 0.47 28.26 0.6 28.18 0.76 28.1 0.88 28.07 1 28.01 1.12 27.97 1.26 27.91 1.38 5.02 0.27 -9.1 161.69 -4.31 -0.24 -27.16 -1.35 -27.19 -1.23 -27.27 -1.08 -27.33 -0.97 -27.38 -0.85 -27.44 -0.72 -27.45 -0.6 -27.54 -0.47 -27.6 -0.34 -27.63 -0.21 -27.69 -0.1 -13.28 0.02zm478.61 18.67l13.6 -161.37 24.88 2.03 27.41 2.38 27.39 2.46 27.34 2.62 27.29 2.72 27.19 2.85 27.16 2.97 27.07 3.07 27.05 3.19 27 3.32 26.9 3.42 26.86 3.53 2.79 0.39 -22.22 160.43 -2.07 -0.29 -26.16 -3.44 -26.22 -3.35 -26.22 -3.22 -26.33 -3.1 -26.37 -3.01 -26.44 -2.86 -26.51 -2.79 -26.51 -2.66 -26.6 -2.52 -26.67 -2.43 -26.74 -2.32 -24.87 -2.02zm475.77 57.43l26.46 -159.78 21.25 3.46 26.37 4.44 26.31 4.52 26.27 4.65 26.17 4.76 26.14 4.84 26.07 4.97 26 5.05 25.97 5.19 25.87 5.28 25.8 5.36 25.78 5.49 14.31 3.11 -34.68 158.19 -13.67 -2.98 -25.07 -5.33 -25.15 -5.23 -25.22 -5.15 -25.23 -5.02 -25.31 -4.92 -25.4 -4.85 -25.42 -4.71 -25.53 -4.63 -25.55 -4.52 -25.61 -4.42 -25.68 -4.31 -21.25 -3.46zm469.86 95.53l38.71 -157.25 4.37 1.07 25.23 6.26 25.19 6.37 25.1 6.44 25.07 6.58 24.94 6.62 24.94 6.74 24.86 6.85 24.76 6.91 24.73 7.02 24.65 7.09 24.58 7.19 24.52 7.29 13.64 4.11 -47.06 154.96 -12.99 -3.92 -23.87 -7.1 -23.97 -6.99 -24 -6.93 -24.09 -6.82 -24.17 -6.76 -24.18 -6.65 -24.26 -6.55 -24.36 -6.49 -24.39 -6.38 -24.45 -6.28 -24.54 -6.21 -24.58 -6.1 -4.38 -1.07zm460.47 132.31l51.41 -153.56 23.51 7.81 23.87 8.03 23.86 8.13 23.79 8.23 23.68 8.29 23.66 8.37 23.54 8.46 23.49 8.51 23.41 8.62 23.39 8.68 23.27 8.78 23.19 8.82 23.16 8.91 2.87 1.13 -59.11 150.78 -2.25 -0.88 -22.55 -8.68 -22.67 -8.63 -22.69 -8.55 -22.74 -8.45 -22.83 -8.39 -22.93 -8.33 -22.97 -8.25 -23.01 -8.15 -23.13 -8.1 -23.14 -8 -23.24 -7.9 -23.32 -7.87 -23.52 -7.81zm449.53 167.8l62.48 -149.42 5.21 2.16 22.59 9.5 22.51 9.56 22.43 9.65 22.32 9.67 22.32 9.76 22.18 9.85 22.14 9.88 22.08 9.98 21.99 10.02 21.91 10.11 21.82 10.13 21.78 10.22 21.7 10.27 6.51 3.13 -70.13 145.98 -5.99 -2.87 -21.15 -10.04 -21.23 -9.96 -21.33 -9.91 -21.36 -9.85 -21.44 -9.76 -21.52 -9.72 -21.59 -9.65 -21.67 -9.59 -21.7 -9.51 -21.83 -9.47 -21.88 -9.39 -21.93 -9.33 -22.01 -9.25 -5.21 -2.15zm435.3 201.09l73.78 -144.17 17.22 8.76 21 10.81 20.98 10.85 20.85 10.93 20.75 10.95 20.75 11.01 20.63 11.09 20.53 11.1 20.49 11.17 20.41 11.22 20.32 11.26 20.26 11.33 20.13 11.36 20.13 11.41 4.1 2.37 -80.75 140.38 -3.61 -2.08 -19.58 -11.12 -19.71 -11.1 -19.74 -11.04 -19.84 -11 -19.92 -10.96 -19.97 -10.88 -20.08 -10.87 -20.11 -10.8 -20.2 -10.72 -20.32 -10.72 -20.34 -10.64 -20.43 -10.6 -20.52 -10.54 -17.21 -8.76zm419.54 232.9l84.06 -138.44 12.52 7.57 19.4 11.82 19.28 11.85 19.21 11.88 19.13 11.93 19.08 11.97 18.99 12.03 18.9 12.05 18.8 12.07 18.73 12.11 18.65 12.15 18.56 12.19 18.51 12.21 18.42 12.26 18.05 12.11 -90.4 134.36 -17.6 -11.79 -17.96 -11.97 -18.06 -11.92 -18.14 -11.9 -18.2 -11.86 -18.3 -11.82 -18.35 -11.81 -18.44 -11.75 -18.52 -11.71 -18.59 -11.68 -18.7 -11.64 -18.76 -11.61 -18.83 -11.57 -18.92 -11.53 -12.52 -7.56zm401.38 262.97l93.9 -131.95 8.94 6.33 17.57 12.53 17.51 12.59 17.4 12.6 17.33 12.64 17.25 12.64 17.17 12.68 17.05 12.69 17.01 12.73 16.9 12.75 16.8 12.73 16.76 12.79 16.66 12.83 16.55 12.81 16.47 12.82 15.23 11.94 -100.12 127.29 -14.83 -11.61 -16.08 -12.54 -16.17 -12.51 -16.21 -12.47 -16.31 -12.44 -16.43 -12.47 -16.49 -12.46 -16.55 -12.37 -16.7 -12.4 -16.71 -12.36 -16.83 -12.34 -16.91 -12.33 -16.98 -12.27 -17.09 -12.29 -17.15 -12.25 -8.94 -6.33zm380.79 291.87l103.32 -124.7 1.54 1.27 15.63 12.98 15.53 13 15.44 13.02 15.32 12.99 15.25 13.02 15.19 13.04 15.06 13.03 15 13.04 14.9 13.05 14.8 13.06 14.72 13.05 14.63 13.05 14.56 13.07 14.46 13.09 14.33 13.05 14.28 13.07 6.58 6.07 -109.93 118.91 -6.22 -5.72 -13.9 -12.71 -14 -12.76 -14.05 -12.7 -14.13 -12.71 -14.27 -12.73 -14.33 -12.73 -14.42 -12.7 -14.51 -12.7 -14.61 -12.71 -14.7 -12.71 -14.74 -12.68 -14.86 -12.67 -14.97 -12.69 -15.04 -12.67 -15.11 -12.65 -15.21 -12.64 -1.54 -1.28zm356.43 319.91l113.4 -115.63 11.84 11.56 13.25 13.05 13.15 13.01 13.12 13.05 12.97 13.04 12.87 12.99 12.81 13 12.73 13.02 12.59 12.98 12.51 12.97 12.47 13 12.28 12.93 12.24 12.9 12.18 12.97 12.03 12.9 11.94 12.89 11.87 12.89 11.77 12.87 3.86 4.25 -120.07 108.66 -3.5 -3.85 -11.38 -12.45 -11.49 -12.47 -11.61 -12.51 -11.67 -12.53 -11.73 -12.49 -11.89 -12.55 -11.98 -12.6 -12.02 -12.55 -12.16 -12.58 -12.26 -12.62 -12.31 -12.6 -12.42 -12.61 -12.55 -12.67 -12.62 -12.65 -12.66 -12.63 -12.83 -12.68 -12.89 -12.7 -11.84 -11.56z"></path> <path class="fil1" d="M9221.61 6508.04c-20.62,-109.15 -48.28,-217.15 -101.55,-306.5 -56.01,-93.96 -117.63,-136.05 -180.41,-182.96 -32.81,38.52 -249.86,477.75 -253.65,495.92l535.61 -6.46zm1356.49 -751.34c-38.98,30.85 -85.19,129.42 -105.53,198.31 -74.47,252.16 17.08,531.46 196.33,677.13 452.5,367.75 1018.24,36.83 1040.12,-452.37 25.58,-571.76 -635.49,-884.91 -1037.02,-529.59 62.61,134.47 139.29,231.76 236.56,300.66 37.92,26.85 109.22,83.25 155.68,95.93 110.47,30.14 102.49,101.59 68.73,141.83 -78.8,93.98 -152.8,-49.18 -155.92,-51.7 -76.71,-62.13 -260.18,-117.32 -398.95,-380.2zm-1755.92 214.62c-82.44,-56.81 -312.65,-42.84 -426.27,-4.64 -406.84,136.76 -555.81,634.13 -316.09,981.39 360.16,521.73 1123.16,232.99 1142.4,-300.76 -136.88,9.03 -526.45,-20.79 -597.19,-2.95 -66.63,16.79 -128.06,-12.99 -117.82,-89.83 5.15,-38.58 22.12,-43.04 52.23,-67.66 26.49,-21.66 249.71,-470.54 262.74,-515.55zm334.67 -354.27c-46.32,63.99 -110.61,197.26 -150.78,266.04 219.65,177.45 291.46,253.04 368.89,633.53l245.33 -19.38 -463.44 -880.19zm628.69 712.58c26.83,-20.95 24.94,-30.08 40.82,-57.72 11.56,-20.11 20.53,-28.45 31.82,-48.63l369.46 -614.82c27.38,-40.12 32.98,-56.09 61.57,-99.56 25.95,-39.45 130.44,-185.86 17.55,-174.59l-1039.96 182.77 438.1 823.18c0.65,-140.7 -26.4,-17.58 -41.51,-137.38 24.49,-4.29 48.91,-9.23 73.24,-13.59 25.2,-4.51 51.44,-7.58 72.67,1.2 7.46,106.18 -44.08,-30.4 -23.76,139.14zm530.37 -1534.89c-12.39,85.93 -67.75,98.72 -18.44,181.64 34.11,57.37 66.94,116.3 99.78,175.15 65.59,117.51 138.44,237.75 201.51,357.8 35.36,-17.54 76.71,-51.06 118.82,-73.45 539.44,-286.68 1202.53,161.24 1136.24,797.71 -67.76,650.64 -846.09,946.48 -1319.43,476.72 -133.81,-132.8 -238.3,-334.97 -236.78,-575.52 1.29,-204.54 99.53,-431.55 199.99,-518.12 -8.04,-20.4 -13.87,-33.93 -24.59,-52.48l-35.46 -37.99 -240.63 410.13c-10.71,16.6 -12.81,23.88 -22.37,40.26l-128.61 211.34c-29.84,56.25 -67.94,106.7 -96.85,162.5l-100.61 167.99c-29.02,66.9 60.04,67.74 -61.64,171.38 -32.37,27.57 -31.64,169.9 -30.92,218.84 53.91,-7.62 38.09,-11.95 48.97,50.17l-166.22 22.14c-17.24,-61.53 -5.79,-51.8 45.88,-66.85l5.24 -211.04c-85.31,-21.93 -22,-51.94 -137.58,-51.95 -46.39,0 -138.48,-6.19 -177.25,3.38 -118.58,820.22 -1048.25,929.35 -1418.18,378.5 -100.73,-150.01 -151.71,-321.09 -139.84,-518.74 25.03,-416.55 383.34,-752.22 825.19,-730.11 127.33,6.37 197.59,44.35 250.72,48.45 11.38,-45.93 66.62,-134.27 92.19,-182.67 27.13,-51.35 79.19,-131.61 94.85,-181.2l-60.76 -105.81c-65.48,-0.34 -119.57,-1.9 -169.55,-21.15 -32.44,-12.49 -117.62,-54.53 -101.34,-103.74 30.73,-35.56 118.31,-34.16 170.4,-40.7 61.13,-7.66 121.18,-15.16 182.55,-22.84 58.94,-7.36 117.91,-14.6 176.84,-22.01 60.64,-7.62 121.77,-30.76 159.5,10.87 -7.05,69.69 -196.31,156.27 -262.53,175.42l24 47.86 1071.98 -185.74c-11.32,-46.72 -64.83,-149.05 -88.03,-196.68 -62.68,-128.68 -5.63,-90.24 3.64,-196.14l-54.29 -47.3 -264.86 44.73 -15.39 -87.75 271.67 -48.13c46.23,-8.1 76,29.47 99.69,50.53 29.56,26.28 65.73,45.28 92.5,74.6z"></path> <path class="fil1" d="M4739.08 14494.38c1188.15,1731.22 3164.5,2903.13 5443.39,2994.89 3268.23,131.6 6095.73,-2000.64 6928.75,-4982.28l298.63 -47.96c95.11,114.52 241.29,181.93 397.18,172.53 20.37,17.79 41.56,35.17 63.68,52 132.49,101.13 351.59,208.89 408.83,338.64 98.67,224.53 -111.89,351.6 -315.02,360.87 -280.98,12.74 -376.84,-33.41 -643.24,51.59 -626.01,199.15 -590,814.01 -126.27,1329.97 98.89,110.3 249.65,311.92 78.45,471.54 -213.58,198.83 -734.95,-189.97 -1211.59,-23.73 -368.43,128.38 -485.77,541.54 -330.72,974.16 53.22,147.99 193.77,346.01 169.41,519.39 -33.12,234.33 -272.97,242.75 -469.77,130.36 -246.41,-140.57 -666.33,-458.35 -1084.75,-210.07 -442.22,262.7 -286.34,859.72 -268.15,1096.72 27.59,356.17 -256.6,508.57 -538.06,190.05 -58.14,-65.75 -115.26,-127.7 -176.96,-193.89 -224.42,-240.53 -708.09,-431.17 -1023.62,-136.2 -390.92,365.73 -224.71,837.85 -406.96,1055.67 -160.98,192.72 -372.47,33.53 -458.94,-111.79 -137.72,-232.21 -272.09,-666.77 -712.09,-751.65 -403.86,-77.99 -699.05,257.34 -839.36,587.71 -82.88,194.42 -128.76,398.31 -330.33,414.35 -392.82,31.14 -243.94,-492.47 -498.97,-903.3 -211.33,-340.58 -592.59,-452.6 -991.19,-180.51 -296.12,201.97 -507.76,745.14 -811.52,511.37 -226.04,-173.74 74.61,-774.34 -229.39,-1190.59 -251.22,-344.25 -659.47,-305.89 -1042.66,-81.91 -117.82,68.76 -284.66,246.53 -455.71,254.51 -242.06,11.14 -293.83,-223.64 -223.86,-428.1 73.09,-214.11 152.12,-315.7 158.06,-582.58 10.41,-479.05 -288.45,-722.29 -747.91,-698.5 -263.69,13.74 -365.13,98.53 -573.79,156.4 -230.56,64.23 -430.8,-22.39 -399.91,-258.83 21.21,-159.54 200.18,-325.15 277.09,-449.38 71.05,-114.96 119.61,-231.58 144.53,-344.3l542.74 -87.15z"></path> <path class="fil1" d="M10734.71 3576.74c-3147.94,-126.76 -5886.53,1846.61 -6828.23,4656.35 -57.54,2.44 -114.5,8.27 -170.32,17.22l-17.35 3.1c-55.74,9.68 -110.99,22.62 -165.4,38.87 155.05,-275.14 30.06,-630.84 -277.8,-948.92 -90.15,-93.09 -317.26,-221.27 -308.29,-416.6 11.76,-259.06 286.32,-252.09 526.21,-205.93 815.57,157.18 1240.07,-351.69 968.47,-989.2 -79.23,-186.2 -214.33,-310.57 -266.24,-472.48 -73.05,-226.79 71.19,-384.58 304.92,-344.16 169.35,29.42 330.86,158.27 533.3,206.23 793.18,187.35 1074.96,-396.57 839.21,-1119.41 -62.44,-190.74 -74.47,-425.31 119.99,-486.82 301.39,-95.03 447.12,358.78 963.57,477.56 477.2,109.85 742.91,-224.91 815.34,-618.55 37.05,-202.34 -27.75,-520.19 69.13,-672.68 122.07,-192.63 330.82,-107.76 453.2,29.51 58.46,65.36 88.31,127.22 140.14,205.76 51,77.84 114.02,144.56 171.11,199.73 115.68,112.56 264.55,230.68 481.55,256.18 408.89,47.58 691.93,-336.41 782.99,-684 55.58,-211.21 86.99,-421.48 274.13,-459.61 245.48,-50.25 316.83,163.24 373.42,347.78 202.54,659.48 687.9,990.14 1238.75,540.34 121.26,-99.11 204.88,-250.4 303.5,-419.4 74.7,-127.86 237.13,-342.59 451.21,-204.23 156.21,100.83 118.08,369.9 142.04,583.1 41.46,374.12 273.49,772.48 700.81,748.79 491.24,-27.11 722.82,-448.56 922.09,-539.9 216.56,-99.06 381.14,53.09 368.81,280.11 -12.54,229.85 -113.54,360.83 -91.95,644.79 33.68,438.14 301.62,721.58 805.79,643.28 392.82,-60.56 862.23,-515.17 997.69,-128.45 98.12,279.45 -368.07,611.22 -285.8,1122.13 26.9,167.2 111.99,297.9 236.57,387.79l-319.9 51.41c-1202.9,-1584.96 -3092.07,-2642.7 -5252.66,-2729.69z"></path> <path class="fil1" d="M12455.47 16810.89c2115.57,-673.01 3651.55,-2305 4258.44,-4240.05l-297.2 47.72c-75.67,12.43 -150.07,6.34 -218.64,-14.8 -53.44,37.95 -115.52,65.55 -183.67,79.12 4.97,12.77 9.27,29.13 36.28,51.36l131.55 18.53c6.76,154.87 -400.45,991.31 -490.04,1064.43l-133.38 -47.41 -67.04 43.33 -1310.7 -846.09c-34.5,-1.77 -68.27,-7.24 -100.85,-16.11l1330.06 868.99c101.88,57.78 17.25,61.34 77.08,130.38 90.15,103.72 191.08,-16.57 -70.02,351.53 -62.62,88.26 -311.24,416.42 -372.08,456.13 -46.2,-9.88 -84.17,-27.77 -131.9,-43.25 -84.55,-27.54 -75.21,1.67 -126.45,36.25 -54.48,-17.52 -327.42,-194.02 -396.42,-236.63l-1573.33 -976.57c-218,-137.22 -176.26,-81.36 -313.79,-345.56l-4.05 -7.67c-11.63,9.34 -23.68,18.16 -36.21,26.43 37.95,71.17 64.6,124.53 68.17,140.21 -18.94,-6.51 -80.5,-41.41 -164.35,-91.44 -18.29,6.78 -37.07,12.5 -56.45,17.1 123,72.57 276.07,160.85 323.64,241.35 85.01,144.08 172.46,305.76 252.62,452.94 167.1,306.81 340.59,600.96 510.09,902.02 85.04,150.82 158.71,308.93 245.35,461.9 32.4,57.23 104.88,167.92 127.23,221.24 29.05,69.63 -32.32,44.03 -3.99,134.52 13.53,43.14 43.22,75.69 57.82,117.33 -105.83,96.16 -413.46,254.51 -570.89,323.83 -74.5,32.86 -259.26,121.35 -328.23,134.43 -87.8,16.7 -126.22,-105.99 -182.23,-144.02 -21.99,-14.96 -68.63,-18.8 -68.63,-18.8 -15.02,34.48 -819.73,-1281.38 -919.77,-1440.72 -298.56,-475.14 -261.64,-316.82 -297.41,-869.97 -10.38,-160.21 -20.48,-320.36 -30.99,-480.49 -15.92,10.1 -32,19.85 -48.28,29.31 24.44,333.61 50.11,702.39 43.53,765.77 -41.04,-7.9 -107.76,-138.66 -136.78,-184.12l-270.72 -427.69c-18.38,5.24 -36.84,10.21 -55.33,14.78l138.13 213.85c71.5,111.71 142.01,218.91 211.79,330.31 111.68,178.65 131.09,170.01 133.46,407.3 4.33,423.15 64.93,1023.95 85.45,1488.48 6.66,150.42 32.03,358.54 23.52,500.54l-76.06 18.81 6.6 202.31c-83.92,63.71 -683.41,93.28 -827.34,88.85 -224.4,-6.97 -149.81,-4.56 -203.78,-191.15l-68.16 -18.6 -179.61 -1850.62c-29.44,-243.24 -73.14,-332.02 12.12,-540.99l242.58 -600.9 -36.65 -2.5c-91.56,222.41 -186.24,447.32 -220.52,532.05 -18.06,44.72 -19.6,72.81 -53.01,86.82 -20.44,-47.64 -48.33,-396.02 -69.5,-683.88l-31.28 -9.99c11.84,144.39 35.79,296.15 48.56,439.19 8.19,91.11 14.74,181.84 21.02,272.81 6.81,98.8 -25.45,153.63 -54.12,229.73 -154.3,410.47 -337.24,801.84 -497.74,1208.34 -53.91,136.55 -108.17,268.02 -164,404.38 -58.65,143.15 -120.91,258.33 -176.4,392.12l-83.6 6.8 -81.88 169.57c-215.58,-29.27 -871.59,-256.53 -998.49,-351.02 3.02,-71.07 44.48,-199.73 40.71,-224.41 -7.68,-49.48 -15.59,-14.48 -41.21,-61.32 217.29,-598.25 463.8,-1178.41 693.54,-1778.2 68.32,-178.3 101.79,-282.06 131.63,-355.26 -18.91,7.53 -37.99,14.66 -57.18,21.46 -66.48,198.97 -400.62,1027.02 -448.74,1147.07l-358.91 895.05c-42.35,113.99 -70.06,5.02 -121.04,98.38 -26.15,48.06 -29.1,92.15 -58.68,144.47 -76.8,-15.65 -560.4,-309.3 -676.4,-381.58 -363.88,-226.63 -123.52,-131.02 -60.96,-296.56 -27.99,-40.5 -31.45,-19.25 -52.87,-62.19 154.86,-139.46 1377.63,-1242.8 1708.17,-1521.79 -34.52,10.53 -69.36,19.9 -104.42,28.08 -317.67,285.27 -863.37,765.51 -969.87,858.96 -71.86,63.15 -622.85,566.68 -684.69,604.53l-62.87 -50.9c-59.01,35.03 -114.92,114.76 -172.69,145.63 -65.29,-25.11 -312.94,-253.31 -382.88,-326.59 -69.14,-72.33 -305.72,-318.62 -343.89,-389.36 66.5,-134.32 152,-63.27 108.51,-231.02l258.87 -232.78c71.82,-66.46 140.16,-130.25 211.4,-194.11 -16.12,-8.87 -31.78,-18.69 -46.89,-29.45l-441.7 383.1c-46.12,40.86 -27.89,28.36 -82.07,29.78 -94.52,2.58 -108.97,57.83 -164.02,89.45 -59.01,-36.68 -126.4,-131.06 -186.8,-222.29l-339.5 54.52c-14.93,2.44 -29.85,4.16 -44.67,5.2 -13.33,3.39 -26.97,6.27 -40.8,8.55l-71.2 11.42c1550.53,2225.74 4474.88,3275.71 7258.99,2390.01zm2402.22 -1861.33c-30.68,79.1 -770.4,714.38 -834.67,742.83 -44.67,-40.53 -74.67,-113.12 -115.05,-168.66l-76.24 25.01c-36.96,-42.08 -524.79,-929.37 -565.49,-1002.04 -94.37,-168.59 -187.33,-336.53 -281.68,-504.73 -52.38,-93.42 -258.43,-432.61 -274.75,-504.97 48.56,11.6 229.41,130.67 282.22,165.14 85.99,56.29 186.41,113.13 275.51,169.69l1441.18 897.55c79.41,62.81 -39.32,73.79 148.97,180.18zm-4535.94 1606.16c-106.47,44.44 -83.75,71.56 -83.7,187.42 -136.4,13.83 -349.16,-15.73 -484.17,-26.31 -152.66,-11.97 -328.11,-11.95 -442.57,-77.31 0.52,-58.03 17.64,-73.4 27.7,-121.72 10.29,-49.65 -16.57,-66.49 -39.87,-96.85l202.68 -507.08c70.79,-172.59 132.01,-334.89 203.15,-503.86 68.61,-162.99 140.92,-341.25 203.88,-503.95l151.8 -373.21c38.67,-91.66 19.28,-96.27 65.7,-108.67 37.87,115.41 47.11,397.1 57.41,530.95 13.89,181.56 25.51,351.05 49.84,533.42 22.63,169.76 30.24,359.11 40.08,525.08 10.76,181.2 36.9,363.09 48.07,542.09zm2331.98 -195.67c-113.48,57.4 -820.22,270 -947.64,267.58 -22.05,-46.52 -22.71,-110.16 -27.88,-171.22l-74.34 -22.18 -110.87 -2052.47c57.35,31.16 491.14,747.61 568.15,866.53 54.27,83.71 507.96,805.86 549.1,894.65l-20.65 25.8c-9.23,10.24 -10.97,8.88 -22.67,22.62 11.81,63.88 61.5,107.04 86.8,168.69z"></path> <polygon class="fil1" points="6472.7,6781.17 6394.84,7024.28 6147.85,7088.93 6355.03,7238.11 6340.18,7492.97 6546.08,7342.05 6783.87,7434.92 6703.95,7192.45 6865.78,6995 6610.49,6996.07 "></polygon> <path class="fil1" d="M2035.18 10254.13c133.8,773.94 766.49,1073.37 1326.48,980.09 469.2,-75.37 920.76,-408.6 893.96,-1066.05 -192.09,30.85 -365.28,58.67 -554.24,89.02 -18.66,253.66 -189.87,408.18 -429.21,446.61 -334.33,50.37 -597.87,-208.1 -654.41,-543.26 -63.68,-377.47 110.24,-669.43 440.88,-722.53 236.18,-37.95 420.63,39.37 538.33,257.75 192.1,-30.85 362.15,-58.17 554.24,-89.02 -187.68,-594.84 -725.44,-772.5 -1182.05,-699.15 -560.52,90.04 -1061.48,571.58 -933.98,1346.54zm4308.01 477.75l551.08 -88.52 -14.27 -84.6 -1370 -2062.65 -242.48 38.95 -617.01 2381.82 14.27 84.6 551.08 -88.52 80.82 -307.07 869.1 -139.62 177.41 265.61zm-444.03 -734.13l-503.84 80.93 147.76 -638.71 356.08 557.78zm2241.05 -884.73l-1029.7 -850.62 -207.83 33.4 385.34 2284.3c192.1,-30.85 384.19,-61.7 576.28,-92.57l-171.26 -1015.24 551.68 432.76 62.98 -10.1 383.56 -583 171.26 1015.24c192.1,-30.85 384.19,-61.7 576.28,-92.57l-385.36 -2284.31 -201.53 32.37 -711.7 1130.34zm1641.92 -103.3c133.79,773.93 766.49,1073.38 1326.46,980.08 469.2,-75.36 920.78,-408.6 893.96,-1066.03 -192.09,30.85 -365.27,58.67 -554.22,89.02 -18.66,253.65 -189.89,408.16 -429.21,446.61 -334.33,50.37 -597.87,-208.1 -654.42,-543.26 -63.68,-377.49 110.23,-669.43 440.87,-722.55 236.19,-37.93 420.65,39.39 538.35,257.77 192.09,-30.86 362.14,-58.17 554.22,-89.04 -187.66,-594.82 -725.43,-772.48 -1182.05,-699.13 -560.52,90.04 -1061.46,571.57 -933.96,1346.53zm3898.57 -1796c-516.44,82.96 -865.99,139.11 -1376.13,221.06 127.36,754.91 255.82,1516.34 384.26,2277.78 510.14,-81.95 888.03,-142.65 1404.47,-225.6 -29.1,-172.46 -58.74,-348.19 -87.28,-517.38 -330.65,53.12 -519.59,83.47 -843.94,135.57 -23.07,-136.67 -45.01,-266.82 -67.52,-400.24l749.45 -120.39c-29.09,-172.46 -58.19,-344.94 -87.27,-517.4l-749.47 120.4 -54.34 -322.15c324.36,-52.1 488.09,-78.4 815.6,-131.02 -29.64,-175.71 -59.29,-351.43 -87.83,-520.63zm1808.45 1056.41c308.6,-49.58 386.95,395.7 75.2,445.78 -132.27,21.25 -273.97,44.02 -403.08,64.75l-75.21 -445.79 403.09 -64.74zm-489.83 -449.4l-46.65 -276.59 1020.29 -163.89 -87.82 -520.64 -1583.96 254.44 384.25 2277.8 969.9 -155.79c1054.37,-172.72 805.15,-1650.04 -249.77,-1480.58l-406.24 65.25zm2970.57 -1295.99c-516.44,82.96 -865.97,139.11 -1376.11,221.04 127.35,754.93 255.8,1516.36 384.25,2277.8 510.14,-81.95 888.04,-142.65 1404.48,-225.6 -29.11,-172.47 -58.74,-348.19 -87.3,-517.38 -330.65,53.11 -519.58,83.46 -843.93,135.57 -23.06,-136.67 -45.02,-266.84 -67.53,-400.25l749.47 -120.38c-29.11,-172.48 -58.19,-344.94 -87.29,-517.4l-749.46 120.38 -54.35 -322.13c324.37,-52.1 488.1,-78.42 815.61,-131.02 -29.65,-175.71 -59.29,-351.43 -87.84,-520.63z"></path> <path class="fil1" d="M3002.02 12667.09c-59.83,-372.45 -404.89,-613.83 -777.34,-554.01l-920.37 147.85 346.11 2154.7 1009.64 -162.18c440.16,-70.71 619,-412.03 561.76,-788.06 -30.66,-190.84 -139.47,-337.55 -329.28,-398.64 90.81,-103 130.24,-270.37 109.48,-399.66zm-519.44 737.07c221.63,-35.6 283.54,330.21 61.93,365.81l-440.19 70.7 -58.84 -366.29 437.1 -70.22zm-221.88 -791.64c221.61,-35.6 277.48,312.22 58.93,347.33l-347.82 55.87 -55.87 -347.83 344.76 -55.37zm2386.51 -888.57c-504.81,81.09 -846.49,135.97 -1345.15,216.07 114.71,714.15 230.41,1434.42 346.12,2154.7 498.66,-80.1 868.03,-139.42 1372.84,-220.52 -26.2,-163.13 -52.91,-329.36 -78.61,-489.41 -323.22,51.92 -507.89,81.57 -824.93,132.5 -20.78,-129.3 -40.56,-252.41 -60.83,-378.6l732.59 -117.69c-26.2,-163.13 -52.41,-326.28 -78.61,-489.43l-732.59 117.68 -48.96 -304.74c317.05,-50.92 477.12,-76.64 797.24,-128.06 -26.7,-166.22 -53.39,-332.43 -79.11,-492.5zm1347 699.33l756.78 1173.03 538.66 -86.51 -12.84 -80.04 -1310.41 -1946.13 -237.01 38.08 -631.9 2258.12 12.85 80.03 538.67 -86.52 345.2 -1350.06zm3369.98 -348.71c-239.31,-1489.83 -2449.42,-1134.83 -2210.1,355.01 239.79,1492.89 2449.91,1137.89 2210.1,-355.01zm-1643.74 264.03c-124.6,-775.71 955.83,-949.25 1080.43,-173.55 125.59,781.84 -954.83,955.39 -1080.43,173.55zm1815.67 -294.82c120.74,732.11 734.14,1012.49 1281.56,921.4 458.64,-73.67 903.36,-391.4 885.49,-1013.72 -187.78,30.15 -357.08,57.34 -541.77,87.01 -21.39,240.25 -190.38,387.38 -424.3,424.97 -326.78,49.33 -580.61,-194.08 -631.54,-511.13 -57.35,-357.06 115.99,-634.35 439.19,-686.27 230.86,-37.07 409.83,35.21 521.88,241.4 187.77,-30.15 353.99,-56.86 541.75,-87.01 -175.57,-562.28 -697.9,-727.82 -1144.23,-656.13 -547.91,88.01 -1042.65,546.39 -928.03,1279.48zm3724.48 -579.32l170.08 1058.89c190.84,-30.66 381.7,-61.32 569.47,-91.49l-347.61 -2163.93 -200.06 32.15 -918.83 1238.52 -169.35 -1054.27c-187.78,30.17 -375.55,60.32 -563.31,90.49l346.1 2154.7 197.01 -31.64 916.5 -1233.42zm2625.12 -1545.77c-1415.94,227.44 -1606.78,258.1 -1791.48,287.77l346.12 2154.7c184.7,-29.67 375.54,-60.33 563.3,-90.49l-264.52 -1646.81 664.88 -106.79 264.53 1646.8c187.76,-30.16 375.54,-60.33 563.29,-90.48l-346.12 -2154.7zm1782.3 -286.31c-504.81,81.1 -846.49,135.99 -1345.15,216.09 114.72,714.13 230.42,1434.41 346.12,2154.7 498.65,-80.1 868.03,-139.44 1372.84,-220.53 -26.2,-163.15 -52.89,-329.36 -78.61,-489.41 -323.2,51.91 -507.89,81.57 -824.94,132.51 -20.78,-129.3 -40.55,-252.42 -60.81,-378.61l732.59 -117.69c-26.2,-163.14 -52.42,-326.29 -78.62,-489.42l-732.6 117.67 -48.95 -304.74c317.06,-50.93 477.12,-76.63 797.24,-128.05 -26.69,-166.23 -53.39,-332.44 -79.11,-492.52zm922.77 2068.4l1274.34 -204.71 38.08 237.03 452.48 -72.68 -115.71 -720.29 -224.7 36.1 -1037.3 -1582.68 -237.02 38.08 -464.82 1823.96 -218.55 35.1 115.69 720.28 455.58 -73.17 -38.07 -237.02zm414.98 -1367.58l435.98 728.83 -609.46 97.92 173.48 -826.75z"></path> <polygon class="fil1" points="13148,5832.52 13070.12,6075.64 12823.15,6140.29 13030.31,6289.46 13015.48,6544.32 13221.36,6393.4 13459.17,6486.27 13379.23,6243.8 13541.08,6046.36 13285.79,6047.42 "></polygon> </g> </g> </svg> 